<svg width="198" height="192" viewBox="0 0 198 192" fill="none" xmlns="http://www.w3.org/2000/svg">
<path d="M26.5567 168.903C28.6951 168.903 30.5036 169.101 31.982 169.497C33.4604 169.892 34.6351 170.657 35.5064 171.791C36.4039 172.898 36.8527 174.493 36.8527 176.576C36.8527 177.499 36.7075 178.448 36.4172 179.423C36.1532 180.373 35.81 181.203 35.3875 181.915C34.9915 182.627 34.6351 183.088 34.3183 183.299C33.9487 183.563 33.1303 183.774 31.8632 183.932C30.5959 184.064 29.1043 184.13 27.3883 184.13C26.7811 184.13 25.844 184.103 24.5767 184.051V191.565H17.4487V169.022C20.2207 168.943 23.2567 168.903 26.5567 168.903ZM29.5267 179.068C29.7907 178.725 29.9227 178.039 29.9227 177.011C29.9227 175.666 29.6324 174.717 29.0516 174.163C28.4972 173.61 27.5204 173.333 26.1212 173.333C25.646 173.333 25.1312 173.372 24.5767 173.452V179.463C24.8407 179.489 25.3556 179.503 26.1212 179.503C28.154 179.503 29.2891 179.358 29.5267 179.068Z" fill="#FFD500"/>
<path d="M59.9281 191.565H52.4437L51.0973 185.87C51.0445 185.659 50.9521 185.303 50.8201 184.802C50.7145 184.275 50.5825 183.892 50.4241 183.655C50.2657 183.392 50.0413 183.22 49.7509 183.141C49.0117 183.167 47.9293 183.181 46.5037 183.181V191.565H39.3757V169.22C42.5701 168.983 45.5533 168.864 48.3253 168.864C50.8333 168.864 52.8661 169.075 54.4237 169.497C55.9813 169.892 57.1429 170.591 57.9085 171.593C58.7005 172.568 59.0965 173.913 59.0965 175.627C59.0965 177.235 58.7269 178.501 57.9877 179.423C57.2485 180.32 56.0605 180.86 54.4237 181.045V181.282C55.3477 181.361 56.1133 181.665 56.7205 182.192C57.3541 182.693 57.7765 183.339 57.9877 184.13L59.9281 191.565ZM46.5037 178.712C46.7413 178.738 47.2033 178.751 47.8897 178.751C49.9225 178.751 51.1105 178.58 51.4537 178.237C51.7705 177.921 51.9289 177.182 51.9289 176.022C51.9289 174.941 51.6385 174.203 51.0577 173.808C50.5033 173.412 49.5793 173.214 48.2857 173.214C47.9953 173.214 47.4013 173.241 46.5037 173.293V178.712Z" fill="#FFD500"/>
<path d="M62.1488 169.022H78.5828V173.768H69.2768V177.881H77.1176V182.152H69.2768V186.74H78.5432V191.565H62.1488V169.022Z" fill="#FFD500"/>
<path d="M110.711 191.565H104.059L103.544 179.147C103.465 176.695 103.372 174.836 103.267 173.57H103.148C102.831 174.572 102.461 176.128 102.039 178.237L101.841 179.226L99.1086 191.565H92.4558L90.159 180.452L89.763 178.474C89.2086 176.022 88.8258 174.388 88.6146 173.57H88.4958C88.3902 174.889 88.2978 177.037 88.2186 180.017C88.1922 180.201 88.179 180.491 88.179 180.887L87.8226 191.565H81.1302L82.0806 169.022H93.4062L95.3466 178.751L95.8218 181.361C96.033 180.544 96.231 179.634 96.4158 178.632L98.2374 169.022H109.801L110.711 191.565Z" fill="#FFD500"/>
<path d="M114.245 169.022H121.373V191.565H114.245V169.022Z" fill="#FFD500"/>
<path d="M146.489 169.022V181.638C146.489 184.248 146.198 186.292 145.618 187.768C145.063 189.218 144.007 190.286 142.45 190.972C140.892 191.657 138.622 192 135.638 192C133.447 192 131.599 191.776 130.094 191.328C128.59 190.853 127.388 189.97 126.491 188.678C125.62 187.386 125.184 185.567 125.184 183.22V169.022H132.312V181.717C132.312 183.115 132.378 184.182 132.51 184.921C132.668 185.633 133.012 186.186 133.54 186.582C134.068 186.951 134.873 187.135 135.955 187.135C136.615 187.135 137.236 187.07 137.816 186.938C138.397 186.806 138.793 186.608 139.004 186.344C139.242 186.028 139.361 184.881 139.361 182.904V169.022H146.489Z" fill="#FFD500"/>
<path d="M179.354 191.565H172.701L172.186 179.147C172.107 176.695 172.015 174.836 171.909 173.57H171.79C171.474 174.572 171.104 176.128 170.682 178.237L170.484 179.226L167.751 191.565H161.098L158.802 180.452L158.406 178.474C157.851 176.022 157.468 174.388 157.257 173.57H157.138C157.033 174.889 156.94 177.037 156.861 180.017C156.835 180.201 156.822 180.491 156.822 180.887L156.465 191.565H149.773L150.723 169.022H162.049L163.989 178.751L164.464 181.361C164.676 180.544 164.874 179.634 165.058 178.632L166.88 169.022H178.443L179.354 191.565Z" fill="#FFD500"/>
<path d="M163.35 138.421H34.65C31.9275 138.421 29.7 140.646 29.7 143.365V153.252C29.7 155.971 31.9275 158.196 34.65 158.196H163.35C166.072 158.196 168.3 155.971 168.3 153.252V143.365C168.3 140.646 166.072 138.421 163.35 138.421ZM183.15 39.5489C174.952 39.5489 168.3 46.1919 168.3 54.3797C168.3 56.5735 168.795 58.6127 169.661 60.4974L147.262 73.907C142.498 76.7496 136.342 75.1429 133.588 70.3229L108.374 26.2629C111.684 23.544 113.85 19.4655 113.85 14.8308C113.85 6.64298 107.198 0 99 0C90.8016 0 84.15 6.64298 84.15 14.8308C84.15 19.4655 86.3156 23.544 89.6259 26.2629L64.4119 70.3229C61.6584 75.1429 55.4709 76.7496 50.7375 73.907L28.3697 60.4974C29.205 58.6436 29.7309 56.5735 29.7309 54.3797C29.7309 46.1919 23.0794 39.5489 14.8809 39.5489C6.6825 39.5489 0 46.1919 0 54.3797C0 62.5676 6.65156 69.2106 14.85 69.2106C15.6544 69.2106 16.4587 69.087 17.2322 68.9634L39.6 128.534H158.4L180.768 68.9634C181.541 69.087 182.346 69.2106 183.15 69.2106C191.348 69.2106 198 62.5676 198 54.3797C198 46.1919 191.348 39.5489 183.15 39.5489Z" fill="#FFD500"/>
</svg>
